<?xml version="1.0" standalone="no"?><!DOCTYPE svg PUBLIC "-//W3C//DTD SVG 1.1//EN" "http://www.w3.org/Graphics/SVG/1.1/DTD/svg11.dtd"><svg t="1615034239969" class="icon" viewBox="0 0 1024 1024" version="1.1" xmlns="http://www.w3.org/2000/svg" p-id="13787" xmlns:xlink="http://www.w3.org/1999/xlink" width="200" height="200"><defs><style type="text/css"></style></defs><path d="M818.52186173 217.32353118c43.12556363 0 77.59029914 37.58977662 77.59029914 84.61420101V722.71703862c0 46.84585039-34.28616226 84.614201-76.81647951 84.61420026H204.70431864c-42.53031724 0-76.81647951-37.76835062-76.8164795-84.61420026V301.9079696c0-46.84585039 34.28616226-84.614201 76.8164795-84.61420101h613.81754308z m0 40.2683835H204.70431864c-22.32172054 0-40.23862093 19.73240065-40.23862092 44.31605492v420.77930644c0 24.58365427 17.91690039 44.31605491 40.23862093 44.31605566h614.59136271c22.32172054 0 40.2683835-19.73240065 40.26838277-44.31605566V301.9079696c0-24.67294126-18.03594998-44.31605491-41.0422024-44.31605491z" p-id="13788" fill="#ff8198"></path><path d="M873.16543286 420.71904587H149.88217427c-1.87502467 0-3.72028676-0.20833583-3.72028676-0.47619681V372.41484321h731.64646315v47.85776767a21.90504813 21.90504813 0 0 1-4.6429178 0.446435zM425.57029949 572.3281688v-26.13129353c0-4.3155324 3.12504113-7.82748333 7.0536637-7.82748333h213.63374317c3.89886076-0.05952441 7.08342553 3.42266393 7.08342552 7.73819633v26.22058053c0.02976258 4.3155324-3.12504113 7.82748333-7.02390111 7.85724592h-213.63374316c-3.92862259 0-7.11318811-3.48218835-7.11318812-7.79772075v-0.05952517zM425.57029949 662.21029583v-26.13129353c0-4.34529498 3.12504113-7.82748333 7.0536637-7.85724592H735.60411138c3.95838517 0 7.11318811 3.42266393 7.14295071 7.79772075v26.19081871c0 4.3155324-3.12504113 7.82748333-7.08342552 7.82748331H432.68348761c-3.92862259 0-7.11318811-3.42266393-7.11318812-7.76795891v-0.0595244zM303.12822346 565.98880033a39.2862273 39.2862273 0 0 0 21.39908949-34.70283392c0-21.84552371-18.36333537-39.55408828-41.04220314-39.55408828s-41.04220314 17.70856457-41.04220315 39.55408828c0 15.00019584 8.66082737 28.00631821 21.3990895 34.70283392-25.80390887 10.35727804-44.49462891 40.38743233-44.4946289 75.8938492 0 44.01843209 128.3052477 44.01843209 128.30524768 1e-8-0.02976258-35.4766543-18.69072002-65.53657041-44.52439148-75.89384921z" p-id="13789" fill="#ff8198"></path></svg>