<?xml version="1.0" standalone="no"?><!DOCTYPE svg PUBLIC "-//W3C//DTD SVG 1.1//EN" "http://www.w3.org/Graphics/SVG/1.1/DTD/svg11.dtd"><svg t="1615034253278" class="icon" viewBox="0 0 1024 1024" version="1.1" xmlns="http://www.w3.org/2000/svg" p-id="14784" xmlns:xlink="http://www.w3.org/1999/xlink" width="200" height="200"><defs><style type="text/css"></style></defs><path d="M477.866667 648.533333h-102.4v-68.266666h76.936533l-68.7104-80.213334 51.8144-44.373333L512 544.836267l76.458667-89.224534 51.882666 44.4416L571.562667 580.266667H648.533333v68.266666h-102.4v102.4h-68.266666v-102.4zM238.933333 284.0576c171.144533 65.262933 352.733867 65.058133 546.133334-0.989867V204.8H238.933333v79.2576z m0 72.635733V819.2h546.133334V354.986667c-191.0784 60.8256-373.4528 61.508267-546.133334 1.706666zM204.8 136.533333h614.4a34.133333 34.133333 0 0 1 34.133333 34.133334v682.666666a34.133333 34.133333 0 0 1-34.133333 34.133334H204.8a34.133333 34.133333 0 0 1-34.133333-34.133334V170.666667a34.133333 34.133333 0 0 1 34.133333-34.133334z" p-id="14785" fill="#ff8198"></path></svg>