<?xml version="1.0" standalone="no"?><!DOCTYPE svg PUBLIC "-//W3C//DTD SVG 1.1//EN" "http://www.w3.org/Graphics/SVG/1.1/DTD/svg11.dtd"><svg t="1615032887563" class="icon" viewBox="0 0 1024 1024" version="1.1" xmlns="http://www.w3.org/2000/svg" p-id="2899" xmlns:xlink="http://www.w3.org/1999/xlink" width="200" height="200"><defs><style type="text/css"></style></defs><path d="M876.4 284.4v-28.6c0-33.8-27.4-61.1-61.1-61.1H174.9c-33.8 0-61.1 27.4-61.1 61.1v514.8c0 33.8 27.4 61.1 61.1 61.1h640.4c33.8 0 61.1-27.4 61.1-61.1V656.8H679v-20.2h-39.6V529H679v-20.2h197.4V347.2H203.5v-62.8h672.9z" fill="#ff8198" p-id="2900"></path><path d="M696.9 526.7v20.2h-39.6v71.7h39.6v20.2h190.6c13.7 0 24.7-11.1 24.7-24.7v-62.7c0-13.7-11.1-24.7-24.7-24.7H696.9z m131.2 80.7c-14.2 0-25.8-11.5-25.8-25.8 0-14.2 11.5-25.8 25.8-25.8 14.2 0 25.8 11.5 25.8 25.8s-11.5 25.8-25.8 25.8z" fill="#ff8198" p-id="2901"></path></svg>